<?xml version="1.0" standalone="no"?>
<!DOCTYPE svg PUBLIC "-//W3C//DTD SVG 20010904//EN"
 "http://www.w3.org/TR/2001/REC-SVG-20010904/DTD/svg10.dtd">
<svg version="1.0" xmlns="http://www.w3.org/2000/svg"
 width="384.000000pt" height="384.000000pt" viewBox="0 0 384.000000 384.000000"
 preserveAspectRatio="xMidYMid meet">
<metadata>
Created by potrace 1.11, written by Peter Selinger 2001-2013
</metadata>
<g transform="translate(0.000000,384.000000) scale(0.100000,-0.100000)"
fill="#000000" stroke="none">
<path d="M1680 3390 l0 -30 -60 0 -60 0 0 -30 c0 -27 -3 -30 -30 -30 -27 0
-30 -3 -30 -30 0 -27 -3 -30 -30 -30 -27 0 -30 -3 -30 -30 0 -27 -3 -30 -30
-30 l-30 0 0 -150 0 -150 30 0 30 0 0 -60 0 -60 -30 0 -30 0 0 -90 0 -90 30 0
30 0 0 -90 0 -90 30 0 c27 0 30 -3 30 -30 0 -27 3 -30 30 -30 27 0 30 -3 30
-30 0 -27 3 -30 30 -30 27 0 30 -3 30 -30 0 -27 3 -30 30 -30 l30 0 0 -60 0
-60 -150 0 -150 0 0 -30 c0 -27 -3 -30 -30 -30 -27 0 -30 -3 -30 -30 0 -27 -3
-30 -30 -30 -27 0 -30 -3 -30 -30 0 -27 -3 -30 -30 -30 -27 0 -30 -3 -30 -30
0 -27 -3 -30 -30 -30 -27 0 -30 -3 -30 -30 0 -27 -3 -30 -30 -30 l-30 0 0 -60
0 -60 -90 0 -90 0 0 -300 0 -300 300 0 300 0 0 -450 0 -450 150 0 150 0 0 90
0 90 -30 0 -30 0 0 270 0 270 180 0 180 0 0 -360 0 -360 180 0 180 0 0 90 0
90 -60 0 -60 0 0 360 0 360 180 0 180 0 0 360 0 360 -30 0 c-27 0 -30 3 -30
30 0 27 -3 30 -30 30 -27 0 -30 3 -30 30 0 27 -3 30 -30 30 -27 0 -30 3 -30
30 0 27 -3 30 -30 30 -27 0 -30 3 -30 30 0 27 -3 30 -30 30 -27 0 -30 3 -30
30 l0 30 -120 0 -120 0 0 60 0 60 30 0 c27 0 30 3 30 30 0 27 3 30 30 30 27 0
30 3 30 30 0 27 3 30 30 30 27 0 30 3 30 30 0 27 3 30 30 30 l30 0 0 90 0 90
30 0 30 0 0 90 0 90 -30 0 -30 0 0 60 0 60 30 0 30 0 0 150 0 150 -30 0 c-27
0 -30 3 -30 30 0 27 -3 30 -30 30 -27 0 -30 3 -30 30 0 27 -3 30 -30 30 -27 0
-30 3 -30 30 l0 30 -60 0 -60 0 0 30 0 30 -240 0 -240 0 0 -30z m540 -300 c0
-27 3 -30 30 -30 27 0 30 -3 30 -30 0 -27 3 -30 30 -30 l30 0 0 -120 0 -120
30 0 30 0 0 -60 0 -60 -30 0 c-27 0 -30 -3 -30 -30 0 -27 -3 -30 -30 -30 l-30
0 0 -90 0 -90 -60 0 -60 0 0 -30 c0 -27 -3 -30 -30 -30 -27 0 -30 -3 -30 -30
l0 -30 -180 0 -180 0 0 30 0 30 -60 0 -60 0 0 30 c0 27 -3 30 -30 30 l-30 0 0
90 0 90 -30 0 c-27 0 -30 3 -30 30 0 27 -3 30 -30 30 l-30 0 0 60 0 60 30 0
30 0 0 120 0 120 30 0 c27 0 30 3 30 30 l0 30 60 0 60 0 0 30 0 30 270 0 270
0 0 -30z m-120 -960 l0 -30 -180 0 -180 0 0 30 0 30 180 0 180 0 0 -30z m-840
-660 l0 -210 30 0 30 0 0 -60 0 -60 -90 0 -90 0 0 270 0 270 60 0 60 0 0 -210z
m1380 -60 l0 -270 -120 0 -120 0 0 30 0 30 60 0 60 0 0 240 0 240 60 0 60 0 0
-270z m-960 -900 l0 -210 30 0 c27 0 30 -3 30 -30 0 -27 -3 -30 -30 -30 -27 0
-30 3 -30 30 0 27 -3 30 -30 30 -27 0 -30 -3 -30 -30 0 -27 -3 -30 -30 -30
l-30 0 0 240 0 240 60 0 60 0 0 -210z m600 0 l0 -210 60 0 60 0 0 -30 0 -30
-60 0 -60 0 0 30 c0 27 -3 30 -30 30 -27 0 -30 -3 -30 -30 0 -27 -3 -30 -30
-30 l-30 0 0 240 0 240 60 0 60 0 0 -210z"/>
<path d="M1680 2910 l0 -30 90 0 90 0 0 30 0 30 -90 0 -90 0 0 -30z"/>
<path d="M1980 2910 l0 -30 90 0 90 0 0 30 0 30 -90 0 -90 0 0 -30z"/>
<path d="M1740 2760 l0 -60 30 0 30 0 0 60 0 60 -30 0 -30 0 0 -60z"/>
<path d="M2040 2760 l0 -60 30 0 30 0 0 60 0 60 -30 0 -30 0 0 -60z"/>
<path d="M1740 2520 l0 -60 30 0 c27 0 30 3 30 30 l0 30 120 0 120 0 0 -30 c0
-27 3 -30 30 -30 l30 0 0 60 0 60 -180 0 -180 0 0 -60z"/>
</g>
</svg>
