<svg xmlns="http://www.w3.org/2000/svg" viewBox="0 0 350.14 130.5"><defs><style>.cls-1,.cls-2,.cls-3{fill:none;stroke:#000;stroke-miterlimit:10;}.cls-2{stroke-width:0.99px;}.cls-3{stroke-width:1px;}</style></defs><title>my-blog icon</title><g id="レイヤー_2" data-name="レイヤー 2"><g id="レイヤー_1-2" data-name="レイヤー 1"><g id="V"><polygon points="18.05 94 4.05 94 21.12 0 35.12 0 18.05 94"/><polygon points="18.17 94 4.17 94 41 0 55 0 18.17 94"/></g><rect x="117" width="230" height="16"/><circle cx="76.5" cy="1.5" r="1.5"/><g id="N"><polygon points="82.02 94 69.02 94 95.98 0 108.98 0 82.02 94"/><polygon points="102.52 94 89.52 94 116.48 0 129.48 0 102.52 94"/><polygon points="102.52 94 89.12 94 96.48 0 109.88 0 102.52 94"/></g><g id="N-2" data-name="N"><polygon points="188.96 120 175.96 120 203.04 26 216.04 26 188.96 120"/><polygon points="209.46 120 196.46 120 223.54 26 236.54 26 209.46 120"/><polygon points="209.46 120 196.06 120 203.54 26 216.94 26 209.46 120"/></g><g id="H"><polygon points="136.52 120 123.52 120 150.48 26 163.48 26 136.52 120"/><polygon points="115.52 120 102.52 120 129.48 26 142.48 26 115.52 120"/><polygon points="147.42 82 113.42 82 118.87 63 152.87 63 147.42 82"/></g><g id="U"><polygon points="152.81 119 139.81 119 166.48 26 179.48 26 152.81 119"/><polygon points="173.81 119 160.81 119 187.48 26 200.48 26 173.81 119"/><polygon points="173.52 120 139.52 120 144.97 101 178.97 101 173.52 120"/></g><polygon points="262.52 120 249.52 120 276.48 26 289.48 26 262.52 120"/><polygon points="294.42 82 260.42 82 265.87 63 299.87 63 294.42 82"/><polygon points="305.03 45 271.03 45 276.48 26 310.48 26 305.03 45"/><polygon points="283.52 120 249.52 120 254.97 101 288.97 101 283.52 120"/><polygon points="299.52 120 286.52 120 313.48 26 326.48 26 299.52 120"/><polygon points="342.03 45 308.03 45 313.48 26 347.48 26 342.03 45"/><polygon points="331.42 82 297.42 82 302.87 63 336.87 63 331.42 82"/><polygon points="331.71 81 318.71 81 334.48 26 347.48 26 331.71 81"/><polygon points="320.52 120 307.76 120 310.02 82 322.78 82 320.52 120"/><polygon points="268.03 45 234.03 45 239.48 26 273.48 26 268.03 45"/><polygon id="A" points="236.52 120 223.52 120 250.48 26 263.48 26 236.52 120"/><polygon points="44.52 94 31.52 94 58.48 0 71.48 0 44.52 94"/><polygon points="65.52 94 52.52 94 79.48 0 92.48 0 65.52 94"/><polygon points="76.42 56 42.42 56 47.87 37 81.87 37 76.42 56"/><polygon points="87.03 19 53.03 19 58.48 0 92.48 0 87.03 19"/><path class="cls-1" d="M6.17,104h14L57,10H43L32,38m0,0,5.08-28h-14L6.05,104h14"/><polyline class="cls-2" points="107.5 106.5 107.5 106.5 107.5 106.5 107.5 106.5"/><g id="N-3" data-name="N"><polyline class="cls-1" points="112.98 10 100.48 10 99.98 10 73.02 104 86.02 104 95.79 69.95"/><polyline class="cls-1" points="93.52 104 106.52 104 128.45 27.53 128.89 26 131.53 26 349.5 26.5 349.5 9.5 133.48 10 121 10 120.48 10 111.4 41.65"/><polyline class="cls-1" points="111.4 41.65 113.88 10 112.98 10 100.48 10"/><polyline class="cls-1" points="106.52 104 93.52 104 93.12 104 95.79 69.95"/></g><path class="cls-1" d="M77,29H69M56,29l5.45-19h34L90,29M72.36,45.28,71.87,47h-8M72,46.5l.15-.51L77,29h-.27m5.72-19h13L90,29,84.87,47,79.42,66l-10.9,38h-13l10.9-38m3-37H69l-.1.36L63.87,47h1.47m9.14-37h-13L56,29,50.87,47,45.42,66l-10.9,38h13l10.9-38M84.87,47,79.42,66M50.87,47,45.42,66m20.81.68.19-.68h-8L58,67.35"/><line class="cls-1" x1="323.03" y1="55" x2="317.87" y2="73"/><polyline class="cls-1" points="311.92 93.75 311.91 93.77 311.91 93.8 301.52 130 288.52 130 299.42 92 304.87 73 310.03 55 315.48 36 328.48 36"/><polyline class="cls-1" points="344.03 55 349.48 36 336.48 36 328.48 36 315.48 36 310.03 55"/><polyline class="cls-1" points="331.03 55 323.03 55 322.87 55.57"/><line class="cls-1" x1="304.87" y1="73" x2="299.42" y2="92"/><polyline class="cls-1" points="324.78 92 333.42 92 333.71 91 338.87 73"/><polyline class="cls-1" points="330.68 55 331.03 55 326.08 72.26 326.26 71.64 326.26 71.64 325.87 73 317.87 73 318.26 71.64"/><polyline class="cls-1" points="333.71 91 338.87 73 344.03 55 349.48 36 336.48 36"/><polyline class="cls-1" points="311.92 93.75 311.91 93.77 311.91 93.8 309.76 130 322.52 130 324.78 92 325.49 92"/><polyline class="cls-1" points="275.42 92 270.25 110.03 269.97 111"/><polyline class="cls-1" points="286.03 55 281.23 71.76 280.87 73"/><polyline class="cls-1" points="291.48 36 278.48 36 273.03 55 267.87 73 262.42 92 256.97 111 251.52 130 264.52 130"/><polyline class="cls-1" points="281.51 70.78 280.87 73 301.87 73 296.42 92 276.96 92 275.42 92 275.01 93.43"/><polyline class="cls-1" points="273.03 55 278.48 36 291.48 36 312.48 36 307.03 55 287.15 55 286.03 55 285.79 55.83"/><polyline class="cls-1" points="256.97 111 251.52 130 264.52 130 285.52 130 290.97 111 271.8 111 269.97 111 270.46 109.3"/><polyline class="cls-1" points="260.03 55 261.56 55 270.03 55 275.48 36 265.48 36 252.48 36 241.48 36 236.03 55 246.43 55 247.03 55"/><line class="cls-1" x1="265.48" y1="36" x2="252.48" y2="36"/><polyline class="cls-1" points="244.62 55 247.03 55 225.52 130 238.52 130 260.03 55 260.83 55"/><g id="N-4" data-name="N"><polyline class="cls-1" points="218.04 36 205.54 36 205.04 36 177.96 130 190.96 130 200.77 95.95"/><polyline class="cls-1" points="198.46 130 211.46 130 238.54 36 225.54 36 216.42 67.65 216.42 67.66"/><polyline class="cls-1" points="205.54 36 218.04 36 218.94 36 216.42 67.65 216.42 67.66"/><polyline class="cls-1" points="211.46 130 198.46 130 198.06 130 200.77 95.95"/></g><g id="U-2" data-name="U"><polyline class="cls-3" points="159.97 110.6 181.48 36 168.48 36 146.97 110.6 141.81 128.5"/><polyline class="cls-3" points="175.81 128.5 180.97 110.6 202.48 36 189.48 36 167.97 110.6"/><polyline class="cls-3" points="168.54 108.61 168.26 109.61 167.97 110.6 165.93 110.6 161.65 110.6 159.97 110.6 160.42 109.04"/><polyline class="cls-3" points="180.97 110.6 175.81 128.5 175.52 129.5 141.52 129.5 141.81 128.5 146.97 110.6"/></g><g id="H-2" data-name="H"><polyline class="cls-1" points="149.42 92 138.52 130 125.52 130 136.01 93.43 136.42 92"/><polyline class="cls-1" points="141.87 73 142.27 71.59 152.48 36 165.48 36 154.87 73"/><path class="cls-1" d="M4.5,115.5v14s74,.5,112.5.5l10.6-35.14.82-2.86"/><polyline class="cls-1" points="133.87 73 134.13 72.1 144.48 36 131.48 36 120.87 73 115.42 92 109.07 114.14 108.82 115"/><line class="cls-1" x1="154.87" y1="73" x2="149.42" y2="92"/><polyline class="cls-1" points="142.27 71.59 141.87 73 133.87 73 134.13 72.1"/><polyline class="cls-1" points="127.6 94.86 128.42 92 136.42 92 136.01 93.43"/><line class="cls-1" x1="120.87" y1="73" x2="115.42" y2="92"/></g><polyline class="cls-1" points="109.07 114.14 108.82 115 4.5 115.5"/><rect y="104" width="114" height="16"/></g></g></svg>